<svg xmlns="http://www.w3.org/2000/svg" xmlns:xlink="http://www.w3.org/1999/xlink" width="1080" zoomAndPan="magnify" viewBox="0 0 810 809.999993" height="1080" preserveAspectRatio="xMidYMid meet"><defs><clipPath id="64907ea58e"><path d="M 84.847656 174 L 725.347656 174 L 725.347656 463 L 84.847656 463 Z M 84.847656 174 " clip-rule="nonzero"></path></clipPath></defs><path fill="#925e81" d="M 371 62.6875 C 357.601562 63.425781 344.441406 65.597656 331.523438 69.210938 C 318.601562 72.820312 306.222656 77.785156 294.386719 84.105469 C 293.921875 84.351562 293.472656 84.617188 293.03125 84.910156 C 292.59375 85.203125 292.171875 85.515625 291.765625 85.847656 C 291.359375 86.179688 290.96875 86.535156 290.597656 86.90625 C 290.222656 87.277344 289.871094 87.667969 289.535156 88.078125 C 289.203125 88.484375 288.886719 88.90625 288.59375 89.339844 C 288.300781 89.777344 288.03125 90.226562 287.785156 90.691406 C 287.535156 91.160156 287.308594 91.632812 287.109375 92.117188 C 286.90625 92.605469 286.730469 93.101562 286.578125 93.605469 C 286.425781 94.109375 286.296875 94.617188 286.195312 95.136719 C 286.089844 95.648438 286.015625 96.167969 285.960938 96.695312 C 285.910156 97.21875 285.886719 97.746094 285.886719 98.273438 C 285.886719 98.800781 285.910156 99.324219 285.964844 99.851562 C 286.015625 100.375 286.09375 100.894531 286.195312 101.414062 C 286.300781 101.925781 286.425781 102.4375 286.582031 102.941406 C 286.734375 103.445312 286.910156 103.941406 287.113281 104.429688 C 287.316406 104.914062 287.539062 105.390625 287.789062 105.855469 C 288.039062 106.320312 288.308594 106.769531 288.601562 107.207031 C 288.894531 107.648438 289.207031 108.070312 289.542969 108.476562 C 289.878906 108.886719 290.230469 109.273438 290.605469 109.644531 C 290.976562 110.015625 291.367188 110.367188 291.773438 110.703125 C 292.179688 111.035156 292.605469 111.34375 293.042969 111.632812 C 293.480469 111.925781 293.929688 112.195312 294.394531 112.441406 C 294.859375 112.6875 295.335938 112.914062 295.824219 113.113281 C 296.308594 113.3125 296.804688 113.488281 297.308594 113.640625 C 297.8125 113.792969 298.320312 113.917969 298.839844 114.019531 C 299.355469 114.117188 299.875 114.191406 300.398438 114.242188 C 300.921875 114.292969 301.445312 114.316406 301.972656 114.3125 C 302.496094 114.3125 303.023438 114.285156 303.546875 114.230469 C 304.066406 114.175781 304.585938 114.09375 305.101562 113.988281 C 305.617188 113.882812 306.125 113.75 306.628906 113.59375 C 307.132812 113.441406 307.625 113.261719 308.109375 113.054688 C 308.59375 112.855469 309.066406 112.628906 309.53125 112.375 C 311.960938 111.082031 314.429688 109.851562 316.929688 108.6875 C 319.429688 107.527344 321.960938 106.429688 324.519531 105.40625 C 327.078125 104.386719 329.664062 103.433594 332.277344 102.546875 C 334.890625 101.660156 337.523438 100.847656 340.179688 100.105469 C 342.835938 99.367188 345.507812 98.699219 348.203125 98.101562 C 350.894531 97.507812 353.601562 96.984375 356.320312 96.535156 C 359.042969 96.089844 361.773438 95.71875 364.515625 95.421875 C 367.253906 95.121094 370.003906 94.894531 372.757812 94.742188 C 375.507812 94.597656 378.265625 94.523438 381.023438 94.523438 C 383.78125 94.523438 386.535156 94.597656 389.289062 94.746094 C 392.042969 94.898438 394.789062 95.125 397.53125 95.421875 C 400.269531 95.722656 403 96.09375 405.722656 96.539062 C 408.441406 96.988281 411.148438 97.507812 413.839844 98.105469 C 416.535156 98.703125 419.207031 99.375 421.863281 100.113281 C 424.519531 100.855469 427.152344 101.667969 429.765625 102.554688 C 432.375 103.441406 434.960938 104.394531 437.523438 105.414062 C 440.082031 106.441406 442.613281 107.535156 445.113281 108.699219 C 447.613281 109.863281 450.078125 111.09375 452.511719 112.386719 C 454.945312 113.6875 457.339844 115.050781 459.699219 116.480469 C 462.058594 117.90625 464.375 119.394531 466.65625 120.945312 C 468.933594 122.5 471.167969 124.121094 473.355469 125.796875 C 475.546875 127.472656 477.6875 129.203125 479.785156 130.996094 C 481.878906 132.792969 483.925781 134.640625 485.921875 136.542969 C 487.914062 138.445312 489.855469 140.398438 491.746094 142.410156 C 493.632812 144.421875 495.464844 146.480469 497.242188 148.585938 C 499.019531 150.703125 500.738281 152.855469 502.394531 155.054688 C 504.054688 157.257812 505.652344 159.507812 507.191406 161.796875 C 508.726562 164.082031 510.199219 166.410156 511.609375 168.777344 C 513.019531 171.148438 514.363281 173.554688 515.644531 175.996094 C 516.921875 178.441406 518.132812 180.917969 519.277344 183.425781 C 520.421875 185.933594 521.5 188.472656 522.503906 191.042969 C 523.511719 193.609375 524.445312 196.199219 525.3125 198.816406 C 525.476562 199.3125 525.667969 199.800781 525.882812 200.28125 C 526.09375 200.761719 526.332031 201.230469 526.59375 201.6875 C 526.851562 202.144531 527.136719 202.585938 527.4375 203.019531 C 527.742188 203.445312 528.066406 203.859375 528.410156 204.253906 C 528.753906 204.652344 529.117188 205.03125 529.5 205.390625 C 529.882812 205.753906 530.28125 206.09375 530.695312 206.414062 C 531.109375 206.738281 531.539062 207.042969 531.984375 207.324219 C 532.429688 207.605469 532.886719 207.863281 533.359375 208.097656 C 533.828125 208.335938 534.308594 208.546875 534.800781 208.730469 C 535.289062 208.917969 535.789062 209.082031 536.296875 209.21875 C 536.804688 209.363281 537.316406 209.476562 537.832031 209.5625 C 538.351562 209.652344 538.871094 209.714844 539.398438 209.75 C 539.921875 209.789062 540.445312 209.800781 540.972656 209.789062 C 541.496094 209.773438 542.019531 209.730469 542.542969 209.664062 C 543.0625 209.601562 543.578125 209.511719 544.09375 209.394531 C 544.605469 209.277344 545.109375 209.136719 545.609375 208.96875 C 546.109375 208.800781 546.597656 208.613281 547.078125 208.398438 C 547.558594 208.183594 548.023438 207.949219 548.480469 207.6875 C 548.9375 207.425781 549.382812 207.140625 549.808594 206.839844 C 550.238281 206.535156 550.652344 206.210938 551.046875 205.863281 C 551.445312 205.519531 551.824219 205.15625 552.1875 204.777344 C 552.546875 204.394531 552.890625 203.996094 553.210938 203.578125 C 553.535156 203.167969 553.835938 202.738281 554.113281 202.289062 C 554.394531 201.84375 554.652344 201.386719 554.886719 200.914062 C 555.121094 200.445312 555.332031 199.964844 555.523438 199.476562 C 555.710938 198.988281 555.871094 198.484375 556.011719 197.976562 C 556.152344 197.46875 556.265625 196.957031 556.351562 196.441406 C 556.441406 195.921875 556.503906 195.402344 556.539062 194.875 C 556.578125 194.351562 556.589844 193.828125 556.574219 193.300781 C 556.5625 192.777344 556.519531 192.253906 556.453125 191.730469 C 556.390625 191.210938 556.296875 190.699219 556.179688 190.183594 C 556.066406 189.671875 555.921875 189.164062 555.757812 188.664062 C 554.96875 186.289062 554.132812 183.933594 553.25 181.589844 C 552.367188 179.246094 551.433594 176.921875 550.457031 174.621094 C 549.476562 172.316406 548.453125 170.035156 547.382812 167.773438 C 546.308594 165.511719 545.191406 163.269531 544.03125 161.050781 C 542.867188 158.835938 541.660156 156.640625 540.40625 154.472656 C 539.152344 152.304688 537.859375 150.167969 536.519531 148.050781 C 535.179688 145.9375 533.796875 143.851562 532.371094 141.792969 C 530.945312 139.730469 529.480469 137.703125 527.972656 135.707031 C 526.464844 133.710938 524.917969 131.738281 523.328125 129.804688 C 521.742188 127.871094 520.117188 125.972656 518.449219 124.101562 C 516.785156 122.226562 515.082031 120.394531 513.34375 118.597656 C 511.601562 116.800781 509.824219 115.035156 508.011719 113.304688 C 506.203125 111.582031 504.355469 109.894531 502.472656 108.242188 C 500.59375 106.585938 498.679688 104.976562 496.730469 103.402344 C 494.785156 101.828125 492.808594 100.296875 490.796875 98.800781 C 488.789062 97.308594 486.75 95.855469 484.679688 94.441406 C 482.613281 93.03125 480.515625 91.664062 478.390625 90.335938 C 476.269531 89.011719 474.117188 87.734375 471.941406 86.496094 C 469.765625 85.261719 467.5625 84.070312 465.339844 82.925781 C 463.113281 81.777344 460.867188 80.675781 458.597656 79.617188 C 456.328125 78.5625 454.035156 77.554688 451.726562 76.589844 C 449.414062 75.628906 447.082031 74.714844 444.734375 73.847656 C 442.386719 72.980469 440.023438 72.160156 437.640625 71.390625 C 435.257812 70.621094 432.863281 69.898438 430.449219 69.226562 C 428.039062 68.554688 425.613281 67.929688 423.179688 67.355469 C 420.742188 66.78125 418.292969 66.257812 415.835938 65.78125 C 413.378906 65.308594 410.910156 64.882812 408.4375 64.507812 C 405.960938 64.136719 403.480469 63.8125 400.988281 63.539062 C 398.5 63.269531 396.007812 63.046875 393.511719 62.875 C 391.011719 62.707031 388.511719 62.585938 386.011719 62.519531 C 383.507812 62.449219 381.003906 62.429688 378.503906 62.464844 C 376 62.5 373.496094 62.582031 371 62.71875 Z M 371 62.6875 " fill-opacity="1" fill-rule="evenodd"></path><g clip-path="url(#64907ea58e)"><path fill="#925e81" d="M 581.082031 174.550781 C 576.363281 174.546875 571.65625 174.773438 566.957031 175.234375 C 562.261719 175.691406 557.601562 176.375 552.972656 177.292969 C 548.34375 178.210938 543.769531 179.355469 539.253906 180.722656 C 534.738281 182.089844 530.300781 183.679688 525.941406 185.480469 C 521.582031 187.289062 517.320312 189.300781 513.160156 191.527344 C 509 193.75 504.957031 196.167969 501.035156 198.792969 C 497.109375 201.414062 493.328125 204.222656 489.679688 207.21875 C 486.035156 210.214844 482.542969 213.378906 479.210938 216.714844 C 472.640625 223.289062 466.757812 230.4375 461.566406 238.148438 C 456.375 245.859375 451.96875 253.996094 448.347656 262.558594 C 448.101562 263.050781 447.882812 263.550781 447.691406 264.0625 C 447.496094 264.574219 447.332031 265.09375 447.191406 265.625 C 447.050781 266.15625 446.9375 266.691406 446.851562 267.230469 C 446.765625 267.773438 446.710938 268.320312 446.679688 268.863281 C 446.648438 269.410156 446.648438 269.957031 446.675781 270.503906 C 446.699219 271.054688 446.753906 271.597656 446.835938 272.136719 C 446.917969 272.679688 447.027344 273.214844 447.164062 273.746094 C 447.300781 274.277344 447.464844 274.800781 447.652344 275.3125 C 447.84375 275.824219 448.058594 276.328125 448.300781 276.824219 C 448.539062 277.3125 448.804688 277.789062 449.097656 278.253906 C 449.386719 278.71875 449.699219 279.164062 450.035156 279.59375 C 450.371094 280.027344 450.726562 280.441406 451.105469 280.835938 C 451.484375 281.230469 451.882812 281.609375 452.300781 281.964844 C 452.714844 282.316406 453.148438 282.652344 453.601562 282.964844 C 454.050781 283.277344 454.515625 283.566406 454.996094 283.828125 C 455.476562 284.089844 455.96875 284.328125 456.472656 284.542969 C 456.976562 284.757812 457.492188 284.941406 458.015625 285.101562 C 458.539062 285.261719 459.066406 285.398438 459.605469 285.503906 C 460.140625 285.609375 460.683594 285.6875 461.230469 285.742188 C 461.773438 285.792969 462.320312 285.816406 462.867188 285.808594 C 463.414062 285.804688 463.960938 285.773438 464.503906 285.707031 C 465.050781 285.648438 465.589844 285.558594 466.125 285.445312 C 466.660156 285.328125 467.1875 285.1875 467.707031 285.019531 C 468.226562 284.847656 468.738281 284.652344 469.238281 284.429688 C 469.738281 284.207031 470.226562 283.960938 470.703125 283.691406 C 471.179688 283.421875 471.640625 283.125 472.085938 282.804688 C 472.53125 282.488281 472.957031 282.144531 473.367188 281.78125 C 473.777344 281.421875 474.167969 281.039062 474.539062 280.632812 C 474.910156 280.230469 475.261719 279.8125 475.589844 279.371094 C 475.917969 278.9375 476.222656 278.484375 476.503906 278.011719 C 476.785156 277.542969 477.042969 277.0625 477.277344 276.566406 C 477.507812 276.070312 477.714844 275.566406 477.898438 275.046875 C 483.5625 261.664062 491.757812 249.5625 501.90625 239.410156 C 504.496094 236.808594 507.203125 234.339844 510.035156 232.003906 C 512.867188 229.671875 515.804688 227.480469 518.851562 225.4375 C 521.898438 223.390625 525.039062 221.503906 528.273438 219.769531 C 531.507812 218.039062 534.820312 216.472656 538.207031 215.0625 C 541.597656 213.65625 545.046875 212.421875 548.558594 211.355469 C 552.070312 210.289062 555.625 209.402344 559.222656 208.691406 C 562.824219 207.976562 566.449219 207.441406 570.097656 207.082031 C 573.75 206.726562 577.410156 206.554688 581.082031 206.5625 C 582.914062 206.558594 584.75 206.597656 586.582031 206.6875 C 588.414062 206.777344 590.242188 206.90625 592.070312 207.082031 C 593.894531 207.261719 595.714844 207.488281 597.53125 207.753906 C 599.347656 208.019531 601.152344 208.328125 602.953125 208.683594 C 604.753906 209.039062 606.542969 209.4375 608.324219 209.882812 C 610.105469 210.324219 611.871094 210.8125 613.628906 211.34375 C 615.382812 211.871094 617.125 212.445312 618.855469 213.066406 C 620.582031 213.683594 622.292969 214.34375 623.988281 215.042969 C 625.683594 215.746094 627.363281 216.488281 629.019531 217.269531 C 630.679688 218.050781 632.316406 218.875 633.9375 219.742188 C 635.554688 220.605469 637.152344 221.511719 638.722656 222.453125 C 640.296875 223.394531 641.847656 224.378906 643.375 225.398438 C 644.898438 226.417969 646.398438 227.472656 647.871094 228.5625 C 649.347656 229.65625 650.792969 230.785156 652.210938 231.949219 C 653.628906 233.117188 655.015625 234.316406 656.375 235.546875 C 657.734375 236.777344 659.0625 238.039062 660.359375 239.339844 C 661.65625 240.636719 662.917969 241.96875 664.152344 243.328125 C 665.382812 244.691406 666.578125 246.078125 667.742188 247.496094 C 668.90625 248.917969 670.03125 250.363281 671.125 251.839844 C 672.214844 253.3125 673.269531 254.808594 674.289062 256.335938 C 675.304688 257.867188 676.285156 259.417969 677.226562 260.992188 C 678.167969 262.566406 679.070312 264.164062 679.933594 265.785156 C 680.796875 267.40625 681.617188 269.042969 682.402344 270.699219 C 683.183594 272.359375 683.925781 274.042969 684.625 275.734375 C 685.324219 277.429688 685.980469 279.140625 686.597656 280.867188 C 687.210938 282.59375 687.785156 284.335938 688.3125 286.09375 C 688.84375 287.847656 689.328125 289.617188 689.769531 291.402344 C 690.214844 293.179688 690.613281 294.96875 690.964844 296.769531 C 691.320312 298.574219 691.628906 300.378906 691.894531 302.195312 C 692.160156 304.011719 692.378906 305.832031 692.554688 307.660156 C 692.730469 309.484375 692.863281 311.3125 692.949219 313.144531 C 693.035156 314.976562 693.074219 316.8125 693.070312 318.648438 C 693.074219 320.480469 693.035156 322.316406 692.949219 324.152344 C 692.863281 325.984375 692.734375 327.8125 692.558594 329.636719 C 692.382812 331.460938 692.164062 333.285156 691.898438 335.101562 C 691.632812 336.917969 691.324219 338.722656 690.972656 340.523438 C 690.617188 342.324219 690.21875 344.117188 689.777344 345.894531 C 689.335938 347.675781 688.847656 349.445312 688.320312 351.199219 C 687.789062 352.953125 687.21875 354.695312 686.605469 356.425781 C 685.988281 358.15625 685.332031 359.867188 684.632812 361.5625 C 683.933594 363.257812 683.191406 364.933594 682.410156 366.59375 C 681.628906 368.257812 680.804688 369.898438 679.941406 371.515625 C 679.078125 373.132812 678.179688 374.734375 677.238281 376.308594 C 676.296875 377.882812 675.316406 379.429688 674.296875 380.957031 C 673.28125 382.488281 672.226562 383.984375 671.132812 385.457031 C 670.042969 386.933594 668.914062 388.378906 667.75 389.796875 C 666.589844 391.21875 665.390625 392.605469 664.160156 393.96875 C 662.929688 395.328125 661.664062 396.65625 660.367188 397.949219 C 659.070312 399.253906 657.742188 400.519531 656.382812 401.75 C 655.023438 402.980469 653.636719 404.175781 652.214844 405.335938 C 650.796875 406.5 649.351562 407.632812 647.878906 408.726562 C 646.40625 409.816406 644.90625 410.871094 643.378906 411.890625 C 641.855469 412.910156 640.304688 413.890625 638.730469 414.832031 C 637.15625 415.777344 635.558594 416.679688 633.941406 417.542969 C 632.320312 418.40625 630.683594 419.230469 629.023438 420.015625 C 627.363281 420.796875 625.6875 421.535156 623.992188 422.234375 C 622.296875 422.933594 620.585938 423.597656 618.855469 424.210938 C 617.128906 424.824219 615.386719 425.398438 613.628906 425.929688 C 611.875 426.460938 610.105469 426.949219 608.324219 427.390625 C 606.542969 427.832031 604.753906 428.230469 602.953125 428.585938 C 601.15625 428.941406 599.347656 429.253906 597.53125 429.523438 C 595.714844 429.789062 593.894531 430.011719 592.070312 430.1875 C 590.242188 430.363281 588.414062 430.492188 586.582031 430.574219 C 584.75 430.664062 582.914062 430.703125 581.082031 430.699219 L 196.902344 430.699219 C 195.589844 430.703125 194.28125 430.671875 192.972656 430.613281 C 191.660156 430.554688 190.355469 430.460938 189.050781 430.335938 C 187.746094 430.210938 186.445312 430.054688 185.148438 429.867188 C 183.851562 429.679688 182.558594 429.460938 181.273438 429.207031 C 179.988281 428.953125 178.707031 428.671875 177.4375 428.355469 C 176.164062 428.039062 174.902344 427.691406 173.644531 427.3125 C 172.390625 426.9375 171.144531 426.53125 169.910156 426.089844 C 168.675781 425.648438 167.453125 425.179688 166.242188 424.675781 C 165.03125 424.175781 163.832031 423.644531 162.644531 423.085938 C 161.460938 422.527344 160.289062 421.941406 159.132812 421.328125 C 157.976562 420.714844 156.835938 420.070312 155.710938 419.394531 C 154.585938 418.722656 153.480469 418.023438 152.390625 417.292969 C 151.300781 416.566406 150.226562 415.8125 149.175781 415.03125 C 148.121094 414.25 147.089844 413.445312 146.074219 412.613281 C 145.0625 411.78125 144.070312 410.921875 143.097656 410.042969 C 142.128906 409.164062 141.179688 408.257812 140.253906 407.332031 C 139.328125 406.402344 138.421875 405.453125 137.542969 404.480469 C 136.664062 403.511719 135.808594 402.519531 134.980469 401.503906 C 134.148438 400.492188 133.34375 399.457031 132.5625 398.398438 C 131.785156 397.34375 131.03125 396.273438 130.304688 395.183594 C 129.578125 394.09375 128.878906 392.988281 128.207031 391.863281 C 127.535156 390.742188 126.890625 389.597656 126.273438 388.441406 C 125.65625 387.285156 125.070312 386.113281 124.511719 384.925781 C 123.957031 383.742188 123.425781 382.542969 122.925781 381.324219 C 122.429688 380.113281 121.960938 378.890625 121.523438 377.65625 C 121.082031 376.425781 120.675781 375.179688 120.296875 373.925781 C 119.921875 372.667969 119.574219 371.402344 119.261719 370.132812 C 118.945312 368.863281 118.660156 367.582031 118.410156 366.292969 C 118.160156 365.003906 117.9375 363.714844 117.75 362.421875 C 117.5625 361.128906 117.40625 359.828125 117.28125 358.523438 C 117.160156 357.21875 117.066406 355.910156 117.007812 354.601562 C 116.949219 353.285156 116.921875 351.972656 116.925781 350.664062 C 116.925781 306.320312 152.527344 270.625 196.902344 270.625 C 219.085938 270.625 239 279.589844 253.503906 294.09375 C 253.871094 294.480469 254.253906 294.851562 254.65625 295.199219 C 255.0625 295.550781 255.480469 295.878906 255.917969 296.1875 C 256.355469 296.492188 256.804688 296.773438 257.269531 297.035156 C 257.734375 297.300781 258.210938 297.542969 258.699219 297.757812 C 259.1875 297.972656 259.683594 298.160156 260.191406 298.324219 C 260.699219 298.492188 261.214844 298.636719 261.734375 298.75 C 262.257812 298.863281 262.785156 298.945312 263.3125 299.011719 C 263.84375 299.070312 264.375 299.105469 264.910156 299.113281 C 265.441406 299.121094 265.976562 299.101562 266.507812 299.054688 C 267.039062 299.011719 267.566406 298.9375 268.089844 298.832031 C 268.613281 298.734375 269.132812 298.613281 269.644531 298.460938 C 270.15625 298.304688 270.660156 298.128906 271.15625 297.929688 C 271.648438 297.730469 272.132812 297.503906 272.605469 297.257812 C 273.078125 297.003906 273.535156 296.730469 273.980469 296.4375 C 274.425781 296.140625 274.851562 295.824219 275.265625 295.488281 C 275.679688 295.148438 276.074219 294.792969 276.453125 294.417969 C 276.828125 294.039062 277.1875 293.640625 277.523438 293.226562 C 277.863281 292.816406 278.179688 292.386719 278.472656 291.941406 C 278.769531 291.496094 279.042969 291.035156 279.289062 290.5625 C 279.539062 290.085938 279.765625 289.605469 279.964844 289.109375 C 280.167969 288.613281 280.34375 288.109375 280.492188 287.59375 C 280.644531 287.082031 280.769531 286.5625 280.867188 286.039062 C 280.964844 285.511719 281.039062 284.984375 281.082031 284.453125 C 281.128906 283.921875 281.148438 283.390625 281.140625 282.855469 C 281.132812 282.316406 281.101562 281.785156 281.039062 281.25 C 280.980469 280.722656 280.890625 280.199219 280.78125 279.675781 C 280.667969 279.15625 280.527344 278.640625 280.363281 278.128906 C 280.199219 277.621094 280.007812 277.121094 279.792969 276.632812 C 279.582031 276.144531 279.34375 275.664062 279.082031 275.199219 C 278.820312 274.734375 278.535156 274.28125 278.226562 273.847656 C 277.917969 273.40625 277.589844 272.984375 277.242188 272.582031 C 276.894531 272.175781 276.523438 271.789062 276.136719 271.425781 C 273.542969 268.832031 270.828125 266.371094 267.992188 264.035156 C 265.15625 261.707031 262.210938 259.523438 259.160156 257.484375 C 256.109375 255.441406 252.964844 253.558594 249.730469 251.828125 C 246.492188 250.097656 243.179688 248.523438 239.789062 247.121094 C 236.398438 245.71875 232.945312 244.484375 229.433594 243.421875 C 225.921875 242.359375 222.363281 241.46875 218.765625 240.75 C 215.164062 240.035156 211.539062 239.5 207.886719 239.144531 C 204.230469 238.785156 200.570312 238.605469 196.902344 238.609375 C 195.066406 238.613281 193.234375 238.660156 191.40625 238.753906 C 189.574219 238.847656 187.75 238.988281 185.925781 239.171875 C 184.101562 239.355469 182.285156 239.582031 180.472656 239.851562 C 178.660156 240.125 176.855469 240.441406 175.058594 240.804688 C 173.261719 241.167969 171.472656 241.570312 169.695312 242.019531 C 167.917969 242.46875 166.15625 242.957031 164.402344 243.492188 C 162.648438 244.027344 160.910156 244.601562 159.183594 245.222656 C 157.460938 245.84375 155.75 246.503906 154.058594 247.207031 C 152.367188 247.910156 150.691406 248.652344 149.035156 249.441406 C 147.378906 250.226562 145.746094 251.050781 144.128906 251.914062 C 142.511719 252.777344 140.921875 253.683594 139.347656 254.628906 C 137.777344 255.570312 136.230469 256.550781 134.707031 257.574219 C 133.183594 258.589844 131.6875 259.644531 130.214844 260.742188 C 128.742188 261.832031 127.300781 262.957031 125.882812 264.121094 C 124.464844 265.28125 123.078125 266.480469 121.722656 267.710938 C 120.363281 268.941406 119.039062 270.203125 117.742188 271.5 C 116.445312 272.792969 115.183594 274.121094 113.949219 275.480469 C 112.71875 276.835938 111.523438 278.222656 110.359375 279.636719 C 109.195312 281.054688 108.070312 282.5 106.976562 283.972656 C 105.882812 285.445312 104.828125 286.941406 103.808594 288.464844 C 102.789062 289.984375 101.808594 291.535156 100.867188 293.109375 C 99.921875 294.679688 99.019531 296.273438 98.152344 297.886719 C 97.289062 299.507812 96.464844 301.144531 95.675781 302.796875 C 94.890625 304.449219 94.148438 306.125 93.445312 307.820312 C 92.742188 309.511719 92.082031 311.21875 91.460938 312.941406 C 90.839844 314.664062 90.265625 316.40625 89.730469 318.160156 C 89.195312 319.914062 88.703125 321.675781 88.253906 323.457031 C 87.808594 325.234375 87.402344 327.023438 87.042969 328.816406 C 86.683594 330.609375 86.367188 332.417969 86.09375 334.230469 C 85.820312 336.039062 85.59375 337.855469 85.410156 339.679688 C 85.226562 341.507812 85.089844 343.335938 84.996094 345.164062 C 84.902344 346.996094 84.851562 348.832031 84.847656 350.664062 C 84.851562 352.496094 84.898438 354.328125 84.992188 356.160156 C 85.085938 357.996094 85.222656 359.820312 85.40625 361.644531 C 85.585938 363.46875 85.8125 365.289062 86.085938 367.101562 C 86.355469 368.910156 86.671875 370.714844 87.03125 372.511719 C 87.390625 374.316406 87.796875 376.101562 88.242188 377.878906 C 88.691406 379.65625 89.179688 381.421875 89.714844 383.179688 C 90.25 384.933594 90.824219 386.671875 91.445312 388.394531 C 92.0625 390.121094 92.722656 391.832031 93.425781 393.523438 C 94.128906 395.214844 94.875 396.890625 95.660156 398.554688 C 96.445312 400.210938 97.269531 401.847656 98.132812 403.460938 C 99 405.078125 99.902344 406.671875 100.84375 408.242188 C 101.789062 409.816406 102.769531 411.367188 103.789062 412.886719 C 104.808594 414.410156 105.863281 415.914062 106.957031 417.386719 C 108.046875 418.859375 109.175781 420.300781 110.339844 421.71875 C 111.5 423.136719 112.699219 424.527344 113.929688 425.886719 C 115.160156 427.242188 116.421875 428.566406 117.71875 429.863281 C 119.015625 431.164062 120.34375 432.429688 121.699219 433.660156 C 123.058594 434.890625 124.445312 436.089844 125.863281 437.253906 C 127.277344 438.417969 128.722656 439.546875 130.195312 440.640625 C 131.667969 441.730469 133.164062 442.789062 134.6875 443.808594 C 136.210938 444.828125 137.757812 445.808594 139.332031 446.753906 C 140.902344 447.695312 142.496094 448.601562 144.113281 449.472656 C 145.726562 450.339844 147.363281 451.164062 149.019531 451.945312 C 150.675781 452.730469 152.351562 453.476562 154.042969 454.175781 C 155.738281 454.878906 157.445312 455.542969 159.171875 456.164062 C 160.898438 456.789062 162.636719 457.363281 164.390625 457.898438 C 166.144531 458.433594 167.910156 458.925781 169.6875 459.371094 C 171.464844 459.820312 173.253906 460.226562 175.050781 460.585938 C 176.847656 460.945312 178.652344 461.261719 180.464844 461.53125 C 182.277344 461.804688 184.097656 462.03125 185.921875 462.214844 C 187.746094 462.398438 189.574219 462.535156 191.402344 462.628906 C 193.234375 462.726562 195.066406 462.773438 196.902344 462.777344 L 581.082031 462.777344 C 660.476562 462.777344 725.148438 398.074219 725.148438 318.648438 C 725.148438 239.25 660.476562 174.550781 581.082031 174.550781 Z M 581.082031 174.550781 " fill-opacity="1" fill-rule="evenodd"></path></g><path fill="#925e81" d="M 245.882812 131.007812 C 244.582031 130.984375 243.292969 131.117188 242.023438 131.410156 C 240.753906 131.703125 239.535156 132.140625 238.371094 132.730469 C 237.207031 133.320312 236.132812 134.042969 235.144531 134.894531 C 234.15625 135.746094 233.285156 136.703125 232.535156 137.765625 C 229.519531 141.878906 226.679688 146.109375 224.015625 150.460938 C 221.351562 154.808594 218.875 159.265625 216.578125 163.816406 C 214.285156 168.371094 212.1875 173.011719 210.277344 177.742188 C 208.371094 182.472656 206.660156 187.269531 205.152344 192.144531 C 203.644531 197.011719 202.339844 201.9375 201.238281 206.917969 C 200.136719 211.898438 199.246094 216.917969 198.5625 221.972656 C 197.878906 227.027344 197.410156 232.097656 197.148438 237.191406 C 196.886719 242.285156 196.835938 247.375 196.996094 252.476562 C 197.011719 253.003906 197.054688 253.527344 197.121094 254.046875 C 197.1875 254.566406 197.28125 255.082031 197.398438 255.589844 C 197.515625 256.101562 197.65625 256.605469 197.824219 257.109375 C 197.992188 257.609375 198.183594 258.09375 198.398438 258.574219 C 198.613281 259.054688 198.851562 259.523438 199.113281 259.980469 C 199.375 260.433594 199.65625 260.875 199.960938 261.304688 C 200.265625 261.730469 200.589844 262.144531 200.933594 262.539062 C 201.28125 262.9375 201.644531 263.316406 202.023438 263.675781 C 202.40625 264.035156 202.804688 264.375 203.222656 264.699219 C 203.636719 265.019531 204.066406 265.316406 204.511719 265.597656 C 204.957031 265.875 205.414062 266.132812 205.882812 266.367188 C 206.351562 266.601562 206.832031 266.808594 207.324219 266.992188 C 207.8125 267.179688 208.3125 267.34375 208.816406 267.480469 C 209.324219 267.617188 209.835938 267.730469 210.351562 267.816406 C 210.871094 267.90625 211.390625 267.96875 211.914062 268.007812 C 212.4375 268.042969 212.960938 268.050781 213.484375 268.035156 C 214.007812 268.023438 214.53125 267.980469 215.050781 267.914062 C 215.570312 267.847656 216.085938 267.753906 216.597656 267.632812 C 217.109375 267.511719 217.613281 267.371094 218.109375 267.203125 C 218.609375 267.035156 219.097656 266.84375 219.574219 266.625 C 220.050781 266.410156 220.519531 266.171875 220.972656 265.910156 C 221.429688 265.648438 221.871094 265.363281 222.296875 265.058594 C 222.722656 264.757812 223.136719 264.433594 223.53125 264.085938 C 223.925781 263.738281 224.304688 263.375 224.664062 262.992188 C 225.023438 262.609375 225.363281 262.210938 225.683594 261.796875 C 226.003906 261.378906 226.304688 260.945312 226.582031 260.503906 C 226.859375 260.0625 227.113281 259.605469 227.347656 259.132812 C 227.582031 258.664062 227.792969 258.183594 227.976562 257.6875 C 228.164062 257.199219 228.324219 256.695312 228.460938 256.183594 C 228.597656 255.679688 228.710938 255.167969 228.796875 254.648438 C 228.882812 254.132812 228.945312 253.613281 228.980469 253.085938 C 229.015625 252.5625 229.027344 252.039062 229.011719 251.515625 C 228.878906 247.304688 228.917969 243.097656 229.136719 238.886719 C 229.351562 234.679688 229.742188 230.488281 230.304688 226.320312 C 230.871094 222.144531 231.605469 218 232.515625 213.882812 C 233.425781 209.769531 234.503906 205.695312 235.75 201.675781 C 236.996094 197.648438 238.40625 193.683594 239.984375 189.777344 C 241.558594 185.875 243.296875 182.039062 245.191406 178.277344 C 247.085938 174.515625 249.132812 170.835938 251.332031 167.242188 C 253.53125 163.648438 255.878906 160.152344 258.371094 156.75 C 259.261719 155.570312 259.972656 154.292969 260.511719 152.914062 C 261.046875 151.535156 261.386719 150.109375 261.53125 148.632812 C 261.675781 147.160156 261.613281 145.695312 261.351562 144.242188 C 261.09375 142.785156 260.636719 141.394531 259.992188 140.0625 C 259.347656 138.730469 258.53125 137.515625 257.546875 136.410156 C 256.566406 135.304688 255.453125 134.355469 254.207031 133.5625 C 252.960938 132.765625 251.632812 132.148438 250.21875 131.722656 C 248.804688 131.296875 247.359375 131.070312 245.882812 131.042969 Z M 245.882812 131.007812 " fill-opacity="1" fill-rule="evenodd"></path><path fill="#925e81" d="M 204.105469 494.792969 C 202.808594 494.859375 201.539062 495.082031 200.296875 495.457031 C 199.054688 495.832031 197.875 496.351562 196.757812 497.019531 C 195.644531 497.683594 194.625 498.472656 193.699219 499.386719 C 192.777344 500.296875 191.976562 501.308594 191.296875 502.414062 L 143.371094 578.289062 C 143.089844 578.730469 142.832031 579.1875 142.597656 579.65625 C 142.363281 580.125 142.152344 580.605469 141.964844 581.097656 C 141.777344 581.585938 141.613281 582.085938 141.472656 582.589844 C 141.332031 583.09375 141.21875 583.605469 141.128906 584.125 C 141.042969 584.640625 140.976562 585.160156 140.941406 585.683594 C 140.902344 586.207031 140.890625 586.730469 140.902344 587.253906 C 140.917969 587.777344 140.957031 588.300781 141.023438 588.820312 C 141.085938 589.339844 141.175781 589.855469 141.292969 590.371094 C 141.40625 590.882812 141.546875 591.386719 141.714844 591.882812 C 141.878906 592.382812 142.066406 592.871094 142.28125 593.351562 C 142.496094 593.832031 142.730469 594.300781 142.988281 594.753906 C 143.25 595.210938 143.53125 595.652344 143.832031 596.082031 C 144.136719 596.507812 144.457031 596.921875 144.800781 597.320312 C 145.144531 597.714844 145.507812 598.09375 145.886719 598.457031 C 146.265625 598.820312 146.664062 599.160156 147.078125 599.480469 C 147.492188 599.804688 147.921875 600.105469 148.363281 600.382812 C 148.808594 600.664062 149.265625 600.921875 149.734375 601.15625 C 150.203125 601.390625 150.679688 601.601562 151.171875 601.792969 C 151.660156 601.976562 152.160156 602.140625 152.664062 602.285156 C 153.171875 602.421875 153.679688 602.535156 154.199219 602.625 C 154.714844 602.714844 155.234375 602.777344 155.757812 602.816406 C 156.28125 602.851562 156.804688 602.863281 157.328125 602.851562 C 157.855469 602.839844 158.375 602.796875 158.898438 602.730469 C 159.417969 602.667969 159.933594 602.578125 160.445312 602.460938 C 160.957031 602.34375 161.460938 602.203125 161.960938 602.035156 C 162.457031 601.871094 162.945312 601.683594 163.425781 601.472656 C 163.902344 601.257812 164.371094 601.023438 164.828125 600.765625 C 165.285156 600.503906 165.726562 600.222656 166.152344 599.921875 C 166.582031 599.617188 166.996094 599.292969 167.390625 598.953125 C 167.789062 598.609375 168.167969 598.246094 168.527344 597.867188 C 168.890625 597.484375 169.230469 597.085938 169.554688 596.671875 C 169.875 596.257812 170.175781 595.828125 170.457031 595.386719 L 218.351562 519.511719 C 219.15625 518.273438 219.777344 516.953125 220.214844 515.542969 C 220.65625 514.128906 220.894531 512.6875 220.933594 511.214844 C 220.972656 509.738281 220.8125 508.285156 220.449219 506.855469 C 220.085938 505.421875 219.539062 504.066406 218.800781 502.789062 C 218.0625 501.511719 217.167969 500.355469 216.109375 499.324219 C 215.050781 498.296875 213.875 497.425781 212.578125 496.71875 C 211.28125 496.011719 209.914062 495.496094 208.472656 495.171875 C 207.035156 494.847656 205.578125 494.722656 204.105469 494.796875 Z M 132.230469 608.574219 C 130.933594 608.640625 129.664062 608.863281 128.421875 609.242188 C 127.179688 609.617188 126 610.136719 124.886719 610.800781 C 123.769531 611.460938 122.75 612.25 121.828125 613.164062 C 120.902344 614.074219 120.101562 615.085938 119.425781 616.195312 L 95.476562 654.164062 C 95.1875 654.605469 94.921875 655.0625 94.675781 655.53125 C 94.433594 656.003906 94.214844 656.488281 94.019531 656.980469 C 93.820312 657.46875 93.652344 657.96875 93.503906 658.476562 C 93.359375 658.988281 93.238281 659.503906 93.140625 660.023438 C 93.046875 660.542969 92.976562 661.066406 92.933594 661.59375 C 92.890625 662.121094 92.871094 662.652344 92.882812 663.179688 C 92.890625 663.710938 92.925781 664.238281 92.988281 664.769531 C 93.050781 665.296875 93.136719 665.816406 93.25 666.332031 C 93.363281 666.851562 93.5 667.359375 93.664062 667.859375 C 93.828125 668.367188 94.019531 668.863281 94.230469 669.34375 C 94.445312 669.828125 94.679688 670.300781 94.941406 670.761719 C 95.199219 671.222656 95.480469 671.667969 95.785156 672.101562 C 96.089844 672.535156 96.414062 672.953125 96.761719 673.359375 C 97.105469 673.757812 97.46875 674.140625 97.855469 674.507812 C 98.238281 674.871094 98.636719 675.21875 99.054688 675.542969 C 99.472656 675.867188 99.90625 676.171875 100.355469 676.453125 C 100.804688 676.738281 101.265625 676.996094 101.738281 677.230469 C 102.210938 677.464844 102.695312 677.675781 103.191406 677.867188 C 103.683594 678.058594 104.1875 678.222656 104.699219 678.359375 C 105.210938 678.496094 105.726562 678.609375 106.25 678.695312 C 106.769531 678.785156 107.296875 678.847656 107.824219 678.882812 C 108.351562 678.917969 108.882812 678.929688 109.410156 678.910156 C 109.941406 678.890625 110.46875 678.847656 110.992188 678.78125 C 111.515625 678.710938 112.035156 678.613281 112.550781 678.492188 C 113.066406 678.371094 113.574219 678.226562 114.078125 678.054688 C 114.578125 677.878906 115.070312 677.683594 115.550781 677.460938 C 116.03125 677.238281 116.5 676.996094 116.957031 676.730469 C 117.414062 676.460938 117.859375 676.171875 118.285156 675.863281 C 118.714844 675.554688 119.128906 675.222656 119.523438 674.875 C 119.917969 674.519531 120.296875 674.148438 120.65625 673.761719 C 121.011719 673.371094 121.351562 672.964844 121.671875 672.539062 C 121.988281 672.117188 122.285156 671.679688 122.5625 671.226562 L 146.507812 633.355469 C 147.324219 632.121094 147.957031 630.792969 148.402344 629.378906 C 148.847656 627.964844 149.09375 626.515625 149.136719 625.03125 C 149.179688 623.550781 149.023438 622.089844 148.660156 620.652344 C 148.296875 619.214844 147.746094 617.851562 147.007812 616.5625 C 146.265625 615.28125 145.363281 614.121094 144.300781 613.089844 C 143.238281 612.054688 142.054688 611.183594 140.75 610.476562 C 139.445312 609.773438 138.070312 609.261719 136.621094 608.9375 C 135.175781 608.613281 133.710938 608.492188 132.230469 608.574219 Z M 300.148438 494.792969 C 298.851562 494.859375 297.582031 495.082031 296.339844 495.457031 C 295.097656 495.832031 293.921875 496.351562 292.804688 497.019531 C 291.6875 497.683594 290.667969 498.472656 289.746094 499.386719 C 288.820312 500.296875 288.019531 501.308594 287.34375 502.414062 L 251.359375 559.335938 C 251.078125 559.777344 250.820312 560.234375 250.585938 560.707031 C 250.351562 561.175781 250.140625 561.652344 249.949219 562.140625 C 249.761719 562.628906 249.597656 563.128906 249.460938 563.636719 C 249.320312 564.140625 249.207031 564.652344 249.117188 565.171875 C 249.027344 565.691406 248.964844 566.210938 248.925781 566.734375 C 248.890625 567.253906 248.878906 567.777344 248.890625 568.300781 C 248.90625 568.828125 248.945312 569.351562 249.007812 569.871094 C 249.074219 570.390625 249.164062 570.902344 249.28125 571.414062 C 249.394531 571.925781 249.535156 572.433594 249.703125 572.929688 C 249.867188 573.433594 250.054688 573.921875 250.269531 574.398438 C 250.480469 574.878906 250.71875 575.34375 250.976562 575.800781 C 251.238281 576.257812 251.515625 576.699219 251.820312 577.125 C 252.121094 577.554688 252.445312 577.96875 252.789062 578.367188 C 253.132812 578.761719 253.492188 579.140625 253.875 579.503906 C 254.253906 579.867188 254.652344 580.207031 255.066406 580.527344 C 255.480469 580.847656 255.90625 581.148438 256.351562 581.429688 C 256.796875 581.710938 257.25 581.96875 257.71875 582.203125 C 258.1875 582.441406 258.667969 582.652344 259.15625 582.839844 C 259.648438 583.03125 260.144531 583.195312 260.652344 583.332031 C 261.15625 583.46875 261.667969 583.582031 262.183594 583.667969 C 262.703125 583.757812 263.222656 583.824219 263.746094 583.859375 C 264.265625 583.898438 264.792969 583.910156 265.316406 583.898438 C 265.839844 583.882812 266.363281 583.84375 266.882812 583.777344 C 267.402344 583.710938 267.917969 583.621094 268.429688 583.503906 C 268.941406 583.390625 269.445312 583.253906 269.945312 583.085938 C 270.441406 582.925781 270.929688 582.734375 271.410156 582.519531 C 271.890625 582.304688 272.355469 582.070312 272.8125 581.8125 C 273.269531 581.550781 273.710938 581.273438 274.140625 580.960938 C 274.570312 580.660156 274.980469 580.339844 275.378906 579.996094 C 275.773438 579.652344 276.152344 579.289062 276.515625 578.910156 C 276.875 578.53125 277.21875 578.136719 277.539062 577.722656 C 277.863281 577.308594 278.164062 576.878906 278.441406 576.433594 L 314.394531 519.511719 C 315.199219 518.273438 315.824219 516.953125 316.261719 515.542969 C 316.699219 514.128906 316.9375 512.6875 316.980469 511.214844 C 317.019531 509.738281 316.855469 508.285156 316.496094 506.855469 C 316.132812 505.421875 315.582031 504.066406 314.84375 502.789062 C 314.109375 501.511719 313.210938 500.355469 312.15625 499.324219 C 311.097656 498.296875 309.921875 497.425781 308.625 496.71875 C 307.328125 496.011719 305.960938 495.496094 304.519531 495.171875 C 303.082031 494.847656 301.625 494.722656 300.148438 494.796875 Z M 240.25 589.621094 C 238.953125 589.6875 237.683594 589.910156 236.441406 590.289062 C 235.199219 590.667969 234.019531 591.1875 232.90625 591.851562 C 231.789062 592.511719 230.769531 593.300781 229.847656 594.214844 C 228.921875 595.125 228.121094 596.136719 227.441406 597.242188 L 191.523438 654.164062 C 191.234375 654.605469 190.964844 655.0625 190.722656 655.535156 C 190.480469 656.007812 190.257812 656.488281 190.0625 656.984375 C 189.867188 657.476562 189.695312 657.976562 189.550781 658.480469 C 189.402344 658.992188 189.28125 659.507812 189.1875 660.027344 C 189.089844 660.546875 189.023438 661.070312 188.976562 661.597656 C 188.933594 662.125 188.917969 662.65625 188.925781 663.183594 C 188.9375 663.714844 188.972656 664.242188 189.03125 664.769531 C 189.09375 665.296875 189.179688 665.816406 189.292969 666.332031 C 189.40625 666.851562 189.546875 667.359375 189.710938 667.859375 C 189.875 668.367188 190.0625 668.863281 190.277344 669.34375 C 190.488281 669.828125 190.726562 670.300781 190.984375 670.765625 C 191.246094 671.222656 191.527344 671.671875 191.832031 672.109375 C 192.136719 672.542969 192.460938 672.964844 192.804688 673.367188 C 193.152344 673.765625 193.515625 674.148438 193.898438 674.511719 C 194.28125 674.875 194.683594 675.21875 195.101562 675.542969 C 195.519531 675.867188 195.953125 676.171875 196.398438 676.453125 C 196.847656 676.738281 197.308594 676.996094 197.78125 677.234375 C 198.257812 677.472656 198.742188 677.683594 199.234375 677.871094 C 199.730469 678.0625 200.234375 678.226562 200.742188 678.363281 C 201.253906 678.5 201.773438 678.613281 202.292969 678.699219 C 202.816406 678.785156 203.339844 678.847656 203.871094 678.882812 C 204.398438 678.917969 204.925781 678.929688 205.457031 678.910156 C 205.984375 678.890625 206.511719 678.847656 207.035156 678.777344 C 207.5625 678.707031 208.082031 678.613281 208.597656 678.492188 C 209.113281 678.371094 209.621094 678.226562 210.121094 678.054688 C 210.621094 677.882812 211.113281 677.6875 211.59375 677.46875 C 212.078125 677.246094 212.546875 677.003906 213.003906 676.738281 C 213.460938 676.46875 213.902344 676.175781 214.332031 675.867188 C 214.761719 675.558594 215.171875 675.226562 215.566406 674.875 C 215.964844 674.523438 216.339844 674.152344 216.699219 673.761719 C 217.058594 673.371094 217.398438 672.964844 217.714844 672.539062 C 218.035156 672.117188 218.332031 671.679688 218.605469 671.226562 L 254.464844 614.335938 C 255.269531 613.101562 255.890625 611.78125 256.328125 610.371094 C 256.765625 608.960938 257.003906 607.519531 257.046875 606.042969 C 257.085938 604.570312 256.925781 603.121094 256.566406 601.695312 C 256.203125 600.265625 255.65625 598.910156 254.921875 597.628906 C 254.183594 596.351562 253.289062 595.199219 252.234375 594.167969 C 251.179688 593.136719 250.007812 592.265625 248.710938 591.558594 C 247.417969 590.851562 246.050781 590.335938 244.613281 590.007812 C 243.175781 589.675781 241.722656 589.546875 240.25 589.621094 Z M 240.25 589.621094 " fill-opacity="1" fill-rule="evenodd"></path><path fill="#925e81" d="M 395.9375 494.792969 C 394.636719 494.882812 393.367188 495.128906 392.128906 495.523438 C 390.890625 495.925781 389.714844 496.46875 388.609375 497.152344 C 387.5 497.839844 386.492188 498.652344 385.582031 499.582031 C 384.671875 500.515625 383.886719 501.542969 383.226562 502.667969 L 315.261719 614.558594 C 314.980469 615.007812 314.726562 615.46875 314.496094 615.945312 C 314.261719 616.417969 314.054688 616.902344 313.867188 617.398438 C 313.683594 617.894531 313.523438 618.394531 313.390625 618.90625 C 313.253906 619.417969 313.144531 619.933594 313.0625 620.453125 C 312.976562 620.976562 312.921875 621.503906 312.890625 622.03125 C 312.855469 622.558594 312.851562 623.085938 312.871094 623.613281 C 312.890625 624.140625 312.9375 624.667969 313.011719 625.191406 C 313.082031 625.710938 313.179688 626.230469 313.304688 626.742188 C 313.425781 627.253906 313.574219 627.761719 313.75 628.257812 C 313.921875 628.757812 314.121094 629.246094 314.34375 629.726562 C 314.5625 630.207031 314.808594 630.671875 315.078125 631.125 C 315.34375 631.585938 315.636719 632.027344 315.949219 632.453125 C 316.257812 632.878906 316.589844 633.289062 316.941406 633.683594 C 317.296875 634.074219 317.667969 634.449219 318.054688 634.804688 C 318.445312 635.160156 318.851562 635.496094 319.273438 635.8125 C 319.695312 636.128906 320.132812 636.425781 320.585938 636.699219 C 321.035156 636.96875 321.5 637.21875 321.976562 637.449219 C 322.453125 637.675781 322.941406 637.878906 323.4375 638.0625 C 323.933594 638.242188 324.4375 638.394531 324.949219 638.523438 C 325.460938 638.652344 325.980469 638.757812 326.503906 638.835938 C 327.023438 638.914062 327.550781 638.964844 328.078125 638.992188 C 328.605469 639.019531 329.132812 639.019531 329.660156 638.992188 C 330.1875 638.964844 330.710938 638.914062 331.234375 638.835938 C 331.753906 638.757812 332.273438 638.65625 332.785156 638.527344 C 333.296875 638.398438 333.800781 638.246094 334.296875 638.070312 C 334.796875 637.886719 335.28125 637.683594 335.757812 637.457031 C 336.234375 637.226562 336.699219 636.976562 337.152344 636.707031 C 337.605469 636.433594 338.042969 636.140625 338.464844 635.824219 C 338.886719 635.507812 339.292969 635.175781 339.683594 634.820312 C 340.074219 634.464844 340.445312 634.089844 340.796875 633.695312 C 341.148438 633.300781 341.480469 632.890625 341.792969 632.464844 C 342.105469 632.039062 342.394531 631.601562 342.664062 631.140625 L 410.535156 519.25 C 411.316406 518.003906 411.914062 516.671875 412.328125 515.261719 C 412.742188 513.84375 412.957031 512.402344 412.972656 510.929688 C 412.984375 509.457031 412.800781 508.011719 412.417969 506.589844 C 412.035156 505.164062 411.464844 503.820312 410.710938 502.558594 C 409.957031 501.296875 409.042969 500.15625 407.976562 499.144531 C 406.90625 498.128906 405.71875 497.28125 404.417969 496.597656 C 403.113281 495.914062 401.742188 495.417969 400.300781 495.109375 C 398.863281 494.800781 397.40625 494.691406 395.9375 494.789062 Z M 294.003906 662.613281 C 292.707031 662.703125 291.4375 662.949219 290.203125 663.351562 C 288.964844 663.753906 287.792969 664.296875 286.691406 664.988281 C 285.585938 665.671875 284.578125 666.480469 283.671875 667.410156 C 282.765625 668.339844 281.980469 669.367188 281.324219 670.488281 L 247.386719 726.417969 C 247.117188 726.867188 246.867188 727.328125 246.636719 727.804688 C 246.410156 728.277344 246.207031 728.757812 246.027344 729.25 C 245.847656 729.742188 245.691406 730.242188 245.5625 730.753906 C 245.429688 731.261719 245.324219 731.777344 245.246094 732.292969 C 245.164062 732.8125 245.109375 733.332031 245.082031 733.859375 C 245.050781 734.378906 245.046875 734.902344 245.070312 735.425781 C 245.09375 735.953125 245.140625 736.476562 245.214844 736.996094 C 245.289062 737.511719 245.386719 738.023438 245.511719 738.53125 C 245.636719 739.042969 245.785156 739.542969 245.957031 740.042969 C 246.132812 740.539062 246.328125 741.027344 246.550781 741.5 C 246.769531 741.976562 247.015625 742.441406 247.28125 742.890625 C 247.546875 743.34375 247.835938 743.78125 248.148438 744.203125 C 248.457031 744.628906 248.785156 745.035156 249.136719 745.429688 C 249.484375 745.820312 249.855469 746.191406 250.242188 746.546875 C 250.625 746.902344 251.03125 747.234375 251.449219 747.546875 C 251.867188 747.863281 252.300781 748.15625 252.75 748.429688 C 253.199219 748.707031 253.660156 748.957031 254.132812 749.183594 C 254.605469 749.410156 255.085938 749.613281 255.582031 749.792969 C 256.074219 749.976562 256.574219 750.132812 257.082031 750.261719 C 257.589844 750.390625 258.101562 750.496094 258.621094 750.574219 C 259.140625 750.65625 259.660156 750.710938 260.183594 750.738281 C 260.707031 750.765625 261.230469 750.769531 261.757812 750.746094 C 262.28125 750.726562 262.800781 750.679688 263.320312 750.605469 C 263.839844 750.53125 264.355469 750.433594 264.867188 750.304688 C 265.375 750.183594 265.878906 750.035156 266.371094 749.859375 C 266.867188 749.6875 267.355469 749.492188 267.828125 749.269531 C 268.304688 749.046875 268.769531 748.804688 269.21875 748.539062 C 269.671875 748.269531 270.109375 747.980469 270.535156 747.664062 C 270.957031 747.355469 271.363281 747.027344 271.753906 746.679688 C 272.144531 746.332031 272.519531 745.960938 272.875 745.574219 C 273.230469 745.1875 273.5625 744.785156 273.878906 744.367188 C 274.195312 743.949219 274.488281 743.515625 274.761719 743.066406 L 308.695312 687.136719 C 309.488281 685.882812 310.097656 684.546875 310.515625 683.128906 C 310.9375 681.707031 311.15625 680.25 311.175781 678.769531 C 311.191406 677.289062 311.007812 675.832031 310.621094 674.40625 C 310.234375 672.980469 309.660156 671.625 308.898438 670.351562 C 308.136719 669.082031 307.21875 667.9375 306.136719 666.925781 C 305.058594 665.910156 303.863281 665.0625 302.546875 664.375 C 301.230469 663.691406 299.847656 663.203125 298.394531 662.902344 C 296.945312 662.601562 295.480469 662.507812 294.003906 662.613281 Z M 294.003906 662.613281 " fill-opacity="1" fill-rule="evenodd"></path><path fill="#925e81" d="M 493.550781 494.730469 C 492.109375 494.6875 490.6875 494.832031 489.285156 495.171875 C 487.882812 495.511719 486.550781 496.027344 485.285156 496.726562 C 484.023438 497.425781 482.878906 498.28125 481.847656 499.292969 C 480.816406 500.300781 479.9375 501.425781 479.210938 502.671875 L 447.257812 555.398438 C 446.988281 555.847656 446.738281 556.3125 446.511719 556.785156 C 446.285156 557.261719 446.082031 557.742188 445.902344 558.234375 C 445.726562 558.730469 445.570312 559.230469 445.441406 559.734375 C 445.3125 560.242188 445.207031 560.753906 445.128906 561.269531 C 445.050781 561.789062 444.996094 562.3125 444.96875 562.835938 C 444.941406 563.359375 444.9375 563.882812 444.960938 564.40625 C 444.984375 564.933594 445.035156 565.457031 445.109375 565.972656 C 445.183594 566.496094 445.285156 567.011719 445.410156 567.515625 C 445.535156 568.027344 445.683594 568.527344 445.859375 569.019531 C 446.035156 569.515625 446.230469 570.003906 446.453125 570.476562 C 446.675781 570.949219 446.921875 571.414062 447.191406 571.863281 C 447.457031 572.3125 447.746094 572.75 448.058594 573.175781 C 448.367188 573.597656 448.699219 574.003906 449.050781 574.394531 C 449.398438 574.789062 449.769531 575.160156 450.15625 575.511719 C 450.542969 575.867188 450.945312 576.199219 451.367188 576.515625 C 451.785156 576.832031 452.21875 577.121094 452.667969 577.390625 C 453.117188 577.664062 453.578125 577.914062 454.050781 578.140625 C 454.527344 578.367188 455.007812 578.570312 455.5 578.746094 C 455.996094 578.925781 456.496094 579.078125 457.003906 579.207031 C 457.511719 579.335938 458.027344 579.4375 458.542969 579.519531 C 459.0625 579.601562 459.582031 579.65625 460.105469 579.683594 C 460.632812 579.710938 461.15625 579.714844 461.679688 579.6875 C 462.203125 579.667969 462.722656 579.621094 463.242188 579.546875 C 463.761719 579.46875 464.277344 579.367188 464.785156 579.242188 C 465.296875 579.117188 465.796875 578.96875 466.292969 578.792969 C 466.785156 578.617188 467.273438 578.421875 467.746094 578.199219 C 468.222656 577.976562 468.683594 577.730469 469.136719 577.460938 C 469.585938 577.191406 470.023438 576.902344 470.445312 576.589844 C 470.871094 576.28125 471.277344 575.949219 471.664062 575.601562 C 472.054688 575.253906 472.429688 574.886719 472.78125 574.5 C 473.136719 574.113281 473.46875 573.707031 473.785156 573.289062 C 474.097656 572.863281 474.390625 572.429688 474.664062 571.980469 L 506.613281 519.253906 C 507.363281 518.0625 507.949219 516.792969 508.363281 515.449219 C 508.777344 514.097656 509.011719 512.71875 509.0625 511.308594 C 509.113281 509.902344 508.980469 508.511719 508.660156 507.136719 C 508.34375 505.761719 507.855469 504.453125 507.191406 503.207031 C 506.527344 501.964844 505.714844 500.828125 504.753906 499.796875 C 503.789062 498.769531 502.707031 497.878906 501.511719 497.132812 C 500.3125 496.390625 499.039062 495.816406 497.691406 495.410156 C 496.339844 495 494.960938 494.773438 493.550781 494.730469 Z M 428.015625 600.253906 C 426.71875 600.34375 425.449219 600.585938 424.207031 600.988281 C 422.96875 601.386719 421.792969 601.929688 420.6875 602.613281 C 419.578125 603.300781 418.570312 604.109375 417.660156 605.039062 C 416.75 605.972656 415.964844 607.007812 415.308594 608.128906 L 351.40625 713.648438 C 351.132812 714.097656 350.882812 714.554688 350.660156 715.03125 C 350.433594 715.507812 350.230469 715.992188 350.050781 716.484375 C 349.871094 716.976562 349.71875 717.476562 349.589844 717.984375 C 349.457031 718.488281 349.355469 719.003906 349.273438 719.523438 C 349.195312 720.042969 349.140625 720.5625 349.113281 721.085938 C 349.085938 721.605469 349.085938 722.128906 349.109375 722.660156 C 349.132812 723.183594 349.179688 723.703125 349.253906 724.222656 C 349.328125 724.742188 349.429688 725.253906 349.554688 725.765625 C 349.679688 726.273438 349.832031 726.773438 350.003906 727.269531 C 350.179688 727.765625 350.378906 728.25 350.601562 728.726562 C 350.824219 729.199219 351.066406 729.664062 351.335938 730.113281 C 351.605469 730.566406 351.894531 731.007812 352.203125 731.429688 C 352.515625 731.855469 352.84375 732.261719 353.195312 732.652344 C 353.546875 733.039062 353.914062 733.410156 354.300781 733.765625 C 354.691406 734.121094 355.09375 734.453125 355.511719 734.765625 C 355.933594 735.082031 356.367188 735.375 356.816406 735.644531 C 357.265625 735.914062 357.726562 736.164062 358.199219 736.386719 C 358.671875 736.613281 359.15625 736.816406 359.648438 736.996094 C 360.140625 737.175781 360.644531 737.332031 361.152344 737.460938 C 361.660156 737.589844 362.171875 737.695312 362.691406 737.773438 C 363.210938 737.851562 363.730469 737.902344 364.253906 737.929688 C 364.777344 737.957031 365.304688 737.960938 365.828125 737.9375 C 366.351562 737.910156 366.871094 737.863281 367.390625 737.789062 C 367.910156 737.714844 368.425781 737.617188 368.933594 737.492188 C 369.445312 737.367188 369.945312 737.21875 370.441406 737.042969 C 370.933594 736.867188 371.417969 736.667969 371.894531 736.449219 C 372.371094 736.226562 372.832031 735.980469 373.285156 735.714844 C 373.734375 735.445312 374.171875 735.152344 374.59375 734.84375 C 375.015625 734.53125 375.421875 734.199219 375.8125 733.851562 C 376.203125 733.5 376.574219 733.132812 376.929688 732.75 C 377.285156 732.363281 377.617188 731.957031 377.929688 731.535156 C 378.246094 731.117188 378.539062 730.679688 378.808594 730.230469 L 442.710938 624.777344 C 443.503906 623.523438 444.113281 622.183594 444.535156 620.761719 C 444.957031 619.339844 445.175781 617.886719 445.191406 616.402344 C 445.210938 614.921875 445.023438 613.460938 444.636719 612.027344 C 444.25 610.59375 443.671875 609.242188 442.910156 607.972656 C 442.144531 606.703125 441.222656 605.554688 440.140625 604.539062 C 439.058594 603.527344 437.859375 602.679688 436.542969 601.996094 C 435.222656 601.316406 433.839844 600.828125 432.386719 600.535156 C 430.929688 600.234375 429.464844 600.140625 427.984375 600.253906 Z M 588.285156 494.792969 C 586.988281 494.859375 585.71875 495.082031 584.476562 495.460938 C 583.234375 495.835938 582.054688 496.355469 580.941406 497.019531 C 579.824219 497.683594 578.804688 498.472656 577.882812 499.386719 C 576.957031 500.296875 576.15625 501.308594 575.476562 502.414062 L 527.550781 578.289062 C 527.273438 578.730469 527.015625 579.183594 526.777344 579.65625 C 526.542969 580.125 526.332031 580.605469 526.144531 581.09375 C 525.957031 581.585938 525.792969 582.082031 525.652344 582.585938 C 525.515625 583.09375 525.398438 583.605469 525.3125 584.121094 C 525.222656 584.640625 525.160156 585.160156 525.121094 585.679688 C 525.082031 586.203125 525.070312 586.726562 525.085938 587.253906 C 525.097656 587.777344 525.136719 588.300781 525.203125 588.820312 C 525.265625 589.34375 525.355469 589.863281 525.472656 590.375 C 525.589844 590.886719 525.730469 591.386719 525.894531 591.882812 C 526.058594 592.382812 526.25 592.871094 526.460938 593.351562 C 526.675781 593.832031 526.910156 594.300781 527.171875 594.753906 C 527.429688 595.210938 527.710938 595.652344 528.011719 596.082031 C 528.316406 596.507812 528.640625 596.921875 528.980469 597.320312 C 529.324219 597.714844 529.6875 598.09375 530.066406 598.457031 C 530.449219 598.820312 530.84375 599.160156 531.257812 599.480469 C 531.671875 599.804688 532.101562 600.105469 532.546875 600.386719 C 532.988281 600.664062 533.445312 600.921875 533.914062 601.15625 C 534.382812 601.394531 534.863281 601.605469 535.351562 601.796875 C 535.839844 601.980469 536.339844 602.144531 536.84375 602.285156 C 537.351562 602.421875 537.863281 602.535156 538.378906 602.625 C 538.894531 602.714844 539.414062 602.78125 539.9375 602.816406 C 540.460938 602.851562 540.984375 602.863281 541.511719 602.851562 C 542.035156 602.839844 542.558594 602.800781 543.078125 602.734375 C 543.597656 602.667969 544.113281 602.578125 544.625 602.464844 C 545.136719 602.351562 545.640625 602.207031 546.140625 602.039062 C 546.636719 601.875 547.125 601.6875 547.605469 601.476562 C 548.085938 601.261719 548.550781 601.027344 549.007812 600.765625 C 549.464844 600.503906 549.90625 600.222656 550.335938 599.921875 C 550.761719 599.617188 551.175781 599.292969 551.570312 598.953125 C 551.96875 598.609375 552.347656 598.246094 552.707031 597.867188 C 553.070312 597.484375 553.410156 597.085938 553.734375 596.671875 C 554.054688 596.257812 554.355469 595.828125 554.636719 595.386719 L 602.53125 519.511719 C 603.335938 518.273438 603.957031 516.953125 604.398438 515.542969 C 604.835938 514.128906 605.074219 512.6875 605.113281 511.214844 C 605.152344 509.738281 604.992188 508.285156 604.628906 506.855469 C 604.269531 505.421875 603.71875 504.066406 602.980469 502.789062 C 602.242188 501.507812 601.347656 500.351562 600.289062 499.324219 C 599.234375 498.296875 598.054688 497.425781 596.757812 496.71875 C 595.460938 496.011719 594.09375 495.496094 592.65625 495.171875 C 591.214844 494.84375 589.757812 494.71875 588.285156 494.796875 Z M 516.410156 608.574219 C 515.113281 608.644531 513.84375 608.867188 512.601562 609.242188 C 511.359375 609.621094 510.183594 610.140625 509.066406 610.804688 C 507.949219 611.464844 506.929688 612.253906 506.007812 613.164062 C 505.082031 614.074219 504.28125 615.085938 503.605469 616.195312 L 479.65625 654.164062 C 479.367188 654.605469 479.101562 655.0625 478.859375 655.53125 C 478.613281 656.003906 478.394531 656.488281 478.199219 656.980469 C 478.003906 657.46875 477.832031 657.96875 477.683594 658.476562 C 477.539062 658.988281 477.417969 659.503906 477.324219 660.023438 C 477.226562 660.542969 477.15625 661.066406 477.113281 661.59375 C 477.070312 662.121094 477.054688 662.652344 477.0625 663.179688 C 477.074219 663.707031 477.109375 664.234375 477.167969 664.765625 C 477.230469 665.292969 477.316406 665.8125 477.429688 666.332031 C 477.542969 666.847656 477.683594 667.355469 477.847656 667.859375 C 478.011719 668.363281 478.199219 668.855469 478.410156 669.34375 C 478.625 669.824219 478.859375 670.296875 479.121094 670.757812 C 479.382812 671.21875 479.664062 671.667969 479.96875 672.101562 C 480.269531 672.535156 480.597656 672.949219 480.941406 673.355469 C 481.289062 673.757812 481.652344 674.140625 482.035156 674.503906 C 482.417969 674.867188 482.820312 675.214844 483.238281 675.539062 C 483.65625 675.863281 484.089844 676.164062 484.535156 676.449219 C 484.984375 676.730469 485.445312 676.988281 485.917969 677.226562 C 486.390625 677.460938 486.875 677.671875 487.371094 677.859375 C 487.867188 678.050781 488.367188 678.214844 488.878906 678.351562 C 489.390625 678.492188 489.90625 678.605469 490.429688 678.691406 C 490.949219 678.777344 491.476562 678.839844 492.003906 678.875 C 492.53125 678.910156 493.0625 678.921875 493.589844 678.902344 C 494.121094 678.882812 494.648438 678.839844 495.171875 678.773438 C 495.695312 678.707031 496.214844 678.609375 496.730469 678.488281 C 497.246094 678.367188 497.753906 678.21875 498.257812 678.042969 C 498.757812 677.871094 499.25 677.675781 499.730469 677.457031 C 500.210938 677.234375 500.679688 676.992188 501.136719 676.726562 C 501.59375 676.457031 502.039062 676.171875 502.464844 675.863281 C 502.894531 675.554688 503.308594 675.222656 503.703125 674.867188 C 504.097656 674.515625 504.476562 674.144531 504.835938 673.757812 C 505.195312 673.367188 505.53125 672.960938 505.851562 672.539062 C 506.167969 672.117188 506.464844 671.679688 506.742188 671.226562 L 530.6875 633.355469 C 531.503906 632.117188 532.136719 630.785156 532.582031 629.371094 C 533.027344 627.957031 533.273438 626.507812 533.316406 625.027344 C 533.363281 623.546875 533.203125 622.082031 532.839844 620.644531 C 532.480469 619.207031 531.929688 617.847656 531.1875 616.5625 C 530.445312 615.277344 529.546875 614.117188 528.484375 613.082031 C 527.417969 612.046875 526.234375 611.179688 524.929688 610.472656 C 523.625 609.765625 522.25 609.253906 520.804688 608.929688 C 519.355469 608.609375 517.890625 608.492188 516.410156 608.574219 Z M 516.410156 608.574219 " fill-opacity="1" fill-rule="evenodd"></path><path fill="#925e81" d="M 578.902344 241.332031 C 578.378906 241.332031 577.855469 241.359375 577.335938 241.410156 C 576.8125 241.460938 576.296875 241.539062 575.78125 241.636719 C 575.265625 241.742188 574.757812 241.871094 574.257812 242.023438 C 573.753906 242.175781 573.261719 242.347656 572.777344 242.546875 C 572.292969 242.75 571.820312 242.972656 571.359375 243.21875 C 570.894531 243.464844 570.445312 243.734375 570.011719 244.023438 C 569.574219 244.316406 569.152344 244.628906 568.75 244.960938 C 568.34375 245.292969 567.957031 245.644531 567.585938 246.015625 C 567.214844 246.386719 566.863281 246.773438 566.53125 247.183594 C 566.199219 247.585938 565.886719 248.003906 565.59375 248.441406 C 565.304688 248.878906 565.035156 249.328125 564.785156 249.792969 C 564.539062 250.253906 564.316406 250.726562 564.113281 251.210938 C 563.914062 251.699219 563.738281 252.191406 563.585938 252.691406 C 563.433594 253.195312 563.304688 253.699219 563.203125 254.210938 C 563.101562 254.730469 563.023438 255.25 562.972656 255.769531 C 562.921875 256.292969 562.894531 256.816406 562.894531 257.339844 C 562.894531 257.867188 562.921875 258.390625 562.972656 258.910156 C 563.023438 259.429688 563.101562 259.949219 563.203125 260.460938 C 563.304688 260.972656 563.433594 261.480469 563.585938 261.984375 C 563.738281 262.484375 563.914062 262.976562 564.113281 263.460938 C 564.316406 263.949219 564.539062 264.421875 564.785156 264.882812 C 565.035156 265.351562 565.304688 265.796875 565.59375 266.230469 C 565.886719 266.664062 566.199219 267.085938 566.53125 267.492188 C 566.863281 267.898438 567.214844 268.285156 567.585938 268.65625 C 567.957031 269.027344 568.34375 269.382812 568.75 269.714844 C 569.152344 270.046875 569.574219 270.355469 570.011719 270.644531 C 570.445312 270.9375 570.894531 271.210938 571.359375 271.457031 C 571.820312 271.703125 572.292969 271.925781 572.777344 272.125 C 573.261719 272.324219 573.753906 272.5 574.257812 272.652344 C 574.757812 272.804688 575.265625 272.933594 575.78125 273.035156 C 576.296875 273.136719 576.8125 273.214844 577.335938 273.265625 C 577.855469 273.316406 578.378906 273.34375 578.902344 273.34375 C 604.644531 273.34375 625.164062 293.835938 625.164062 319.605469 C 625.164062 320.132812 625.191406 320.65625 625.242188 321.175781 C 625.292969 321.695312 625.371094 322.214844 625.472656 322.726562 C 625.574219 323.238281 625.703125 323.746094 625.855469 324.25 C 626.007812 324.753906 626.183594 325.246094 626.382812 325.726562 C 626.585938 326.214844 626.808594 326.6875 627.054688 327.148438 C 627.304688 327.613281 627.570312 328.0625 627.863281 328.496094 C 628.15625 328.933594 628.464844 329.355469 628.800781 329.761719 C 629.132812 330.164062 629.484375 330.550781 629.855469 330.921875 C 630.226562 331.292969 630.613281 331.644531 631.019531 331.976562 C 631.421875 332.3125 631.84375 332.621094 632.28125 332.914062 C 632.714844 333.207031 633.164062 333.476562 633.628906 333.722656 C 634.089844 333.96875 634.5625 334.191406 635.046875 334.390625 C 635.53125 334.59375 636.023438 334.769531 636.527344 334.921875 C 637.027344 335.074219 637.535156 335.203125 638.050781 335.304688 C 638.5625 335.40625 639.082031 335.484375 639.605469 335.535156 C 640.125 335.585938 640.648438 335.609375 641.171875 335.613281 C 641.699219 335.609375 642.21875 335.585938 642.742188 335.535156 C 643.265625 335.484375 643.78125 335.40625 644.296875 335.304688 C 644.808594 335.203125 645.316406 335.074219 645.820312 334.921875 C 646.320312 334.769531 646.816406 334.59375 647.300781 334.390625 C 647.785156 334.191406 648.257812 333.96875 648.71875 333.722656 C 649.179688 333.476562 649.628906 333.207031 650.066406 332.914062 C 650.503906 332.621094 650.921875 332.3125 651.328125 331.976562 C 651.734375 331.644531 652.121094 331.292969 652.492188 330.921875 C 652.863281 330.550781 653.214844 330.164062 653.546875 329.757812 C 653.878906 329.355469 654.191406 328.933594 654.484375 328.496094 C 654.773438 328.0625 655.042969 327.613281 655.289062 327.148438 C 655.539062 326.6875 655.761719 326.214844 655.960938 325.726562 C 656.164062 325.246094 656.339844 324.753906 656.492188 324.25 C 656.644531 323.746094 656.769531 323.238281 656.875 322.726562 C 656.976562 322.214844 657.050781 321.695312 657.105469 321.171875 C 657.15625 320.652344 657.179688 320.132812 657.179688 319.605469 C 657.179688 276.546875 621.964844 241.296875 578.902344 241.296875 Z M 578.902344 241.332031 " fill-opacity="1" fill-rule="evenodd"></path></svg>