<svg xmlns="http://www.w3.org/2000/svg" xmlns:xlink="http://www.w3.org/1999/xlink" width="1080" zoomAndPan="magnify" viewBox="0 0 810 809.999993" height="1080" preserveAspectRatio="xMidYMid meet"><defs><clipPath id="a47a9546a4"><path d="M 52.699219 52.699219 L 756.949219 52.699219 L 756.949219 756.949219 L 52.699219 756.949219 Z M 52.699219 52.699219 " clip-rule="nonzero"></path></clipPath></defs><g clip-path="url(#a47a9546a4)"><path fill="#925e81" d="M 740.042969 387.882812 L 692.636719 387.882812 L 719.230469 356.855469 C 725.253906 349.816406 724.460938 339.246094 717.421875 333.222656 C 710.410156 327.195312 699.8125 328.019531 693.761719 335.03125 L 648.492188 387.882812 L 608.808594 387.882812 L 635.371094 356.855469 C 641.425781 349.816406 640.605469 339.246094 633.566406 333.222656 C 626.554688 327.195312 615.957031 328.019531 609.929688 335.03125 L 564.632812 387.882812 L 445.121094 387.882812 L 529.636719 303.371094 L 599.003906 308.710938 C 599.441406 308.765625 599.878906 308.765625 600.320312 308.765625 C 609 308.765625 616.339844 302.082031 617.023438 293.292969 C 617.734375 284.0625 610.835938 275.984375 601.605469 275.273438 L 560.855469 272.152344 L 588.898438 244.082031 L 658.296875 249.421875 C 658.734375 249.449219 659.171875 249.476562 659.609375 249.476562 C 668.289062 249.476562 675.628906 242.792969 676.316406 234.003906 C 677.027344 224.746094 670.097656 216.695312 660.871094 215.980469 L 620.144531 212.859375 L 653.667969 179.339844 C 660.210938 172.792969 660.210938 162.167969 653.667969 155.625 C 647.121094 149.078125 636.496094 149.078125 629.949219 155.625 L 596.429688 189.144531 L 593.308594 148.421875 C 592.570312 139.191406 584.625 132.261719 575.289062 132.976562 C 566.058594 133.6875 559.15625 141.765625 559.871094 150.996094 L 565.210938 220.390625 L 537.140625 248.433594 L 534.015625 207.683594 C 533.304688 198.453125 525.035156 191.554688 515.996094 192.265625 C 506.769531 192.976562 499.867188 201.054688 500.578125 210.257812 L 505.917969 279.65625 L 421.40625 364.167969 L 421.40625 244.65625 L 474.261719 199.359375 C 481.296875 193.332031 482.09375 182.761719 476.066406 175.722656 C 470.042969 168.6875 459.445312 167.863281 452.433594 173.917969 L 421.40625 200.480469 L 421.40625 160.800781 L 474.261719 115.53125 C 481.296875 109.503906 482.09375 98.90625 476.066406 91.867188 C 470.042969 84.828125 459.445312 84.007812 452.433594 90.0625 L 421.40625 116.652344 L 421.40625 69.246094 C 421.40625 59.992188 413.902344 52.488281 404.644531 52.488281 C 395.386719 52.488281 387.882812 59.992188 387.882812 69.246094 L 387.882812 116.652344 L 356.855469 90.0625 C 349.84375 84.035156 339.246094 84.855469 333.222656 91.867188 C 327.195312 98.90625 327.992188 109.503906 335.03125 115.53125 L 387.882812 160.800781 L 387.882812 200.480469 L 356.855469 173.917969 C 349.84375 167.890625 339.246094 168.6875 333.222656 175.722656 C 327.195312 182.761719 327.992188 193.332031 335.03125 199.359375 L 387.882812 244.65625 L 387.882812 364.167969 L 303.371094 279.65625 L 308.710938 210.257812 C 309.421875 201.054688 302.523438 192.976562 293.292969 192.265625 C 284.089844 191.5 275.984375 198.453125 275.273438 207.683594 L 272.152344 248.433594 L 244.082031 220.390625 L 249.421875 150.996094 C 250.132812 141.765625 243.230469 133.6875 234.003906 132.976562 C 224.773438 132.179688 216.695312 139.191406 215.980469 148.421875 L 212.859375 189.144531 L 179.339844 155.625 C 172.792969 149.078125 162.167969 149.078125 155.621094 155.625 C 149.078125 162.167969 149.078125 172.792969 155.621094 179.339844 L 189.144531 212.859375 L 148.421875 215.980469 C 139.191406 216.695312 132.261719 224.746094 132.976562 234.003906 C 133.660156 242.792969 141 249.476562 149.679688 249.476562 C 150.117188 249.476562 150.554688 249.449219 150.996094 249.421875 L 220.390625 244.082031 L 248.433594 272.152344 L 207.710938 275.273438 C 198.453125 275.984375 191.554688 284.0625 192.265625 293.292969 C 192.949219 302.082031 200.289062 308.765625 208.972656 308.765625 C 209.410156 308.765625 209.847656 308.765625 210.285156 308.710938 L 279.65625 303.371094 L 364.167969 387.882812 L 244.65625 387.882812 L 199.359375 335.03125 C 193.332031 327.992188 182.734375 327.195312 175.722656 333.222656 C 168.6875 339.246094 167.863281 349.816406 173.917969 356.855469 L 200.480469 387.882812 L 160.828125 387.882812 L 115.53125 335.03125 C 109.476562 327.992188 98.90625 327.195312 91.867188 333.222656 C 84.828125 339.246094 84.035156 349.816406 90.0625 356.855469 L 116.625 387.882812 L 69.246094 387.882812 C 59.992188 387.882812 52.488281 395.386719 52.488281 404.644531 C 52.488281 413.902344 59.992188 421.40625 69.246094 421.40625 L 116.625 421.40625 L 90.0625 452.433594 C 84.035156 459.472656 84.828125 470.042969 91.867188 476.066406 C 95.046875 478.777344 98.90625 480.121094 102.796875 480.121094 C 107.503906 480.121094 112.214844 478.121094 115.53125 474.261719 L 160.828125 421.40625 L 200.480469 421.40625 L 173.917969 452.433594 C 167.863281 459.472656 168.6875 470.042969 175.722656 476.066406 C 178.875 478.777344 182.761719 480.121094 186.625 480.121094 C 191.363281 480.121094 196.046875 478.121094 199.359375 474.261719 L 244.65625 421.40625 L 364.167969 421.40625 L 279.65625 505.917969 L 210.285156 500.578125 C 201.027344 499.8125 192.976562 506.769531 192.265625 515.996094 C 191.554688 525.226562 198.453125 533.304688 207.710938 534.015625 L 248.433594 537.140625 L 220.390625 565.210938 L 150.996094 559.871094 C 141.875 559.128906 133.6875 566.058594 132.976562 575.289062 C 132.261719 584.542969 139.191406 592.597656 148.421875 593.308594 L 189.144531 596.429688 L 155.621094 629.949219 C 149.078125 636.496094 149.078125 647.121094 155.621094 653.667969 C 158.910156 656.925781 163.179688 658.570312 167.480469 658.570312 C 171.78125 658.570312 176.082031 656.925781 179.339844 653.667969 L 212.859375 620.144531 L 215.980469 660.871094 C 216.667969 669.660156 224.007812 676.371094 232.6875 676.371094 C 233.125 676.371094 233.5625 676.34375 234.003906 676.316406 C 243.230469 675.601562 250.132812 667.550781 249.421875 658.296875 L 244.082031 588.898438 L 272.152344 560.855469 L 275.273438 601.578125 C 275.957031 610.398438 283.296875 617.078125 291.976562 617.078125 C 292.417969 617.078125 292.855469 617.050781 293.292969 617.023438 C 302.523438 616.3125 309.421875 608.234375 308.710938 599.003906 L 303.371094 529.636719 L 387.882812 445.121094 L 387.882812 564.632812 L 335.03125 609.929688 C 327.992188 615.957031 327.195312 626.527344 333.222656 633.566406 C 339.246094 640.578125 349.816406 641.398438 356.855469 635.371094 L 387.882812 608.808594 L 387.882812 648.464844 L 335.03125 693.761719 C 327.992188 699.785156 327.195312 710.382812 333.222656 717.421875 C 339.246094 724.433594 349.816406 725.253906 356.855469 719.230469 L 387.882812 692.636719 L 387.882812 740.042969 C 387.882812 749.300781 395.386719 756.804688 404.644531 756.804688 C 413.902344 756.804688 421.40625 749.300781 421.40625 740.042969 L 421.40625 692.636719 L 452.433594 719.230469 C 455.582031 721.941406 459.472656 723.28125 463.332031 723.28125 C 468.042969 723.28125 472.753906 721.28125 476.066406 717.421875 C 482.09375 710.382812 481.296875 699.785156 474.261719 693.761719 L 421.40625 648.464844 L 421.40625 608.808594 L 452.433594 635.371094 C 455.582031 638.085938 459.472656 639.425781 463.332031 639.425781 C 468.042969 639.425781 472.753906 637.425781 476.066406 633.566406 C 482.09375 626.527344 481.296875 615.957031 474.261719 609.929688 L 421.40625 564.632812 L 421.40625 445.121094 L 505.917969 529.636719 L 500.578125 599.003906 C 499.867188 608.234375 506.769531 616.3125 515.996094 617.023438 C 516.433594 617.050781 516.875 617.078125 517.3125 617.078125 C 525.992188 617.078125 533.332031 610.398438 534.015625 601.578125 L 537.140625 560.855469 L 565.210938 588.898438 L 559.871094 658.296875 C 559.15625 667.550781 566.058594 675.601562 575.289062 676.316406 C 575.726562 676.34375 576.164062 676.371094 576.601562 676.371094 C 585.285156 676.371094 592.625 669.660156 593.308594 660.871094 L 596.429688 620.144531 L 629.949219 653.667969 C 633.210938 656.925781 637.507812 658.570312 641.808594 658.570312 C 646.109375 658.570312 650.378906 656.925781 653.667969 653.667969 C 660.210938 647.121094 660.210938 636.496094 653.667969 629.949219 L 620.144531 596.429688 L 660.871094 593.308594 C 670.097656 592.597656 677.027344 584.542969 676.316406 575.289062 C 675.601562 566.058594 667.632812 559.15625 658.296875 559.871094 L 588.898438 565.210938 L 560.855469 537.140625 L 601.605469 534.015625 C 610.835938 533.304688 617.734375 525.226562 617.023438 515.996094 C 616.3125 506.769531 608.097656 499.867188 599.003906 500.578125 L 529.636719 505.917969 L 445.121094 421.40625 L 564.632812 421.40625 L 609.929688 474.261719 C 613.246094 478.121094 617.929688 480.121094 622.664062 480.121094 C 626.527344 480.121094 630.414062 478.777344 633.566406 476.066406 C 640.605469 470.042969 641.425781 459.472656 635.371094 452.433594 L 608.808594 421.40625 L 648.492188 421.40625 L 693.761719 474.261719 C 697.074219 478.121094 701.785156 480.121094 706.523438 480.121094 C 710.382812 480.121094 714.246094 478.777344 717.421875 476.066406 C 724.460938 470.042969 725.253906 459.472656 719.230469 452.433594 L 692.636719 421.40625 L 740.042969 421.40625 C 749.300781 421.40625 756.804688 413.902344 756.804688 404.644531 C 756.804688 395.386719 749.300781 387.882812 740.042969 387.882812 " fill-opacity="1" fill-rule="nonzero"></path></g></svg>